<svg xmlns="http://www.w3.org/2000/svg" xmlns:xlink="http://www.w3.org/1999/xlink" xmlns:s="https://github.com/nturley/netlistsvg" width="509" height="188.5">
  <style>svg {
    stroke:#000;
    fill:none;
  }
  text {
    fill:#000;
    stroke:none;
    font-size:10px;
    font-weight: bold;
    font-family: "Courier New", monospace;
  }
  .nodelabel {
    text-anchor: middle;
  }
  .inputPortLabel {
    text-anchor: end;
  }
  .splitjoinBody {
    fill:#000;
  }</style>
  <g s:type="and" transform="translate(142,113)" s:width="30" s:height="25" id="cell_$and$D_flip_flop.v:14$2">
    <s:alias val="$and"/>
    <s:alias val="$logic_and"/>
    <s:alias val="$_AND_"/>
    <path d="M0,0 L0,25 L15,25 A15 12.5 0 0 0 15,0 Z" class="cell_$and$D_flip_flop.v:14$2"/>
    <g s:x="0" s:y="5" s:pid="A"/>
    <g s:x="0" s:y="20" s:pid="B"/>
    <g s:x="30" s:y="12.5" s:pid="Y"/>
  </g>
  <g s:type="and" transform="translate(272,27)" s:width="30" s:height="25" id="cell_$and$D_flip_flop.v:15$3">
    <s:alias val="$and"/>
    <s:alias val="$logic_and"/>
    <s:alias val="$_AND_"/>
    <path d="M0,0 L0,25 L15,25 A15 12.5 0 0 0 15,0 Z" class="cell_$and$D_flip_flop.v:15$3"/>
    <g s:x="0" s:y="5" s:pid="A"/>
    <g s:x="0" s:y="20" s:pid="B"/>
    <g s:x="30" s:y="12.5" s:pid="Y"/>
  </g>
  <g s:type="not" transform="translate(77,108)" s:width="30" s:height="20" id="cell_$not$D_flip_flop.v:0$1">
    <s:alias val="$_NOT_"/>
    <s:alias val="$not"/>
    <path d="M0,0 L0,20 L20,10 Z" class="cell_$not$D_flip_flop.v:0$1"/>
    <circle cx="23" cy="10" r="3" class="cell_$not$D_flip_flop.v:0$1"/>
    <g s:x="0" s:y="10" s:pid="A"/>
    <g s:x="25" s:y="10" s:pid="Y"/>
  </g>
  <g s:type="not" transform="translate(272,123)" s:width="30" s:height="20" id="cell_$not$D_flip_flop.v:0$5">
    <s:alias val="$_NOT_"/>
    <s:alias val="$not"/>
    <path d="M0,0 L0,20 L20,10 Z" class="cell_$not$D_flip_flop.v:0$5"/>
    <circle cx="23" cy="10" r="3" class="cell_$not$D_flip_flop.v:0$5"/>
    <g s:x="0" s:y="10" s:pid="A"/>
    <g s:x="25" s:y="10" s:pid="Y"/>
  </g>
  <g s:type="not" transform="translate(402,37)" s:width="30" s:height="20" id="cell_$not$D_flip_flop.v:0$7">
    <s:alias val="$_NOT_"/>
    <s:alias val="$not"/>
    <path d="M0,0 L0,20 L20,10 Z" class="cell_$not$D_flip_flop.v:0$7"/>
    <circle cx="23" cy="10" r="3" class="cell_$not$D_flip_flop.v:0$7"/>
    <g s:x="0" s:y="10" s:pid="A"/>
    <g s:x="25" s:y="10" s:pid="Y"/>
  </g>
  <g s:type="or" transform="translate(207,120.5)" s:width="30" s:height="25" id="cell_$or$D_flip_flop.v:18$4">
    <s:alias val="$or"/>
    <s:alias val="$logic_or"/>
    <s:alias val="$_OR_"/>
    <path d="M0,25 L0,25 L15,25 A15 12.5 0 0 0 15,0 L0,0" class="cell_$or$D_flip_flop.v:18$4"/>
    <path d="M0,0 A30 25 0 0 1 0,25" class="cell_$or$D_flip_flop.v:18$4"/>
    <g s:x="3" s:y="5" s:pid="A"/>
    <g s:x="3" s:y="20" s:pid="B"/>
    <g s:x="30" s:y="12.5" s:pid="Y"/>
  </g>
  <g s:type="or" transform="translate(337,34.5)" s:width="30" s:height="25" id="cell_$or$D_flip_flop.v:19$6">
    <s:alias val="$or"/>
    <s:alias val="$logic_or"/>
    <s:alias val="$_OR_"/>
    <path d="M0,25 L0,25 L15,25 A15 12.5 0 0 0 15,0 L0,0" class="cell_$or$D_flip_flop.v:19$6"/>
    <path d="M0,0 A30 25 0 0 1 0,25" class="cell_$or$D_flip_flop.v:19$6"/>
    <g s:x="3" s:y="5" s:pid="A"/>
    <g s:x="3" s:y="20" s:pid="B"/>
    <g s:x="30" s:y="12.5" s:pid="Y"/>
  </g>
  <g s:type="inputExt" transform="translate(12,22)" s:width="30" s:height="20" id="cell_D">
    <text x="15" y="-4" class="nodelabel cell_D" s:attribute="ref">D</text>
    <s:alias val="$_inputExt_"/>
    <path d="M0,0 L0,20 L15,20 L30,10 L15,0 Z" class="cell_D"/>
    <g s:x="28" s:y="10" s:pid="Y"/>
  </g>
  <g s:type="inputExt" transform="translate(77,53)" s:width="30" s:height="20" id="cell_CLK">
    <text x="15" y="-4" class="nodelabel cell_CLK" s:attribute="ref">CLK</text>
    <s:alias val="$_inputExt_"/>
    <path d="M0,0 L0,20 L15,20 L30,10 L15,0 Z" class="cell_CLK"/>
    <g s:x="28" s:y="10" s:pid="Y"/>
  </g>
  <g s:type="outputExt" transform="translate(467,156.5)" s:width="30" s:height="20" id="cell_Q">
    <text x="15" y="-4" class="nodelabel cell_Q" s:attribute="ref">Q</text>
    <s:alias val="$_outputExt_"/>
    <path d="M30,0 L30,20 L15,20 L0,10 L15,0 Z" class="cell_Q"/>
    <g s:x="0" s:y="10" s:pid="A"/>
  </g>
  <g s:type="outputExt" transform="translate(467,37)" s:width="30" s:height="20" id="cell_Qbar">
    <text x="15" y="-4" class="nodelabel cell_Qbar" s:attribute="ref">Qbar</text>
    <s:alias val="$_outputExt_"/>
    <path d="M30,0 L30,20 L15,20 L0,10 L15,0 Z" class="cell_Qbar"/>
    <g s:x="0" s:y="10" s:pid="A"/>
  </g>
  <line x1="102" x2="142" y1="118" y2="118" class="net_6"/>
  <line x1="105" x2="117" y1="63" y2="63" class="net_3"/>
  <line x1="117" x2="117" y1="63" y2="133" class="net_3"/>
  <circle cx="117" cy="63" r="2" style="fill:#000" class="net_3"/>
  <line x1="117" x2="142" y1="133" y2="133" class="net_3"/>
  <line x1="105" x2="247" y1="63" y2="63" class="net_3"/>
  <line x1="247" x2="247" y1="63" y2="47" class="net_3"/>
  <line x1="247" x2="272" y1="47" y2="47" class="net_3"/>
  <line x1="40" x2="272" y1="32" y2="32" class="net_2"/>
  <line x1="40" x2="52" y1="32" y2="32" class="net_2"/>
  <line x1="52" x2="52" y1="32" y2="118" class="net_2"/>
  <circle cx="52" cy="32" r="2" style="fill:#000" class="net_2"/>
  <line x1="52" x2="77" y1="118" y2="118" class="net_2"/>
  <line x1="237" x2="272" y1="133" y2="133" class="net_9"/>
  <line x1="367" x2="402" y1="47" y2="47" class="net_10"/>
  <line x1="172" x2="210" y1="125.5" y2="125.5" class="net_7"/>
  <line x1="427" x2="442" y1="47" y2="47" class="net_5"/>
  <line x1="442" x2="442" y1="47" y2="155.5" class="net_5"/>
  <line x1="442" x2="182" y1="155.5" y2="155.5" class="net_5"/>
  <line x1="182" x2="182" y1="155.5" y2="140.5" class="net_5"/>
  <circle cx="442" cy="47" r="2" style="fill:#000" class="net_5"/>
  <line x1="182" x2="210" y1="140.5" y2="140.5" class="net_5"/>
  <line x1="427" x2="467" y1="47" y2="47" class="net_5"/>
  <line x1="302" x2="340" y1="39.5" y2="39.5" class="net_8"/>
  <line x1="297" x2="312" y1="133" y2="133" class="net_4"/>
  <line x1="312" x2="312" y1="133" y2="54.5" class="net_4"/>
  <circle cx="312" cy="133" r="2" style="fill:#000" class="net_4"/>
  <line x1="312" x2="340" y1="54.5" y2="54.5" class="net_4"/>
  <line x1="297" x2="312" y1="133" y2="133" class="net_4"/>
  <line x1="312" x2="312" y1="133" y2="166.5" class="net_4"/>
  <line x1="312" x2="467" y1="166.5" y2="166.5" class="net_4"/>
</svg>
